<?xml version="1.0" encoding="UTF-8"?>
<svg id="Layer_1" data-name="Layer 1" xmlns="http://www.w3.org/2000/svg" viewBox="0 0 723.47 148.04">
  <defs>
    <style>
      .cls-1 {
        fill: #231f20;
      }
    </style>
  </defs>
  <g>
    <path class="cls-1" d="M54.04,148.04c-.84,0-1.68-.16-2.5-.48-2.75-1.09-4.47-3.85-4.25-6.8l2.28-29.99c-7.98.7-19.58,1.28-24.83-.57-2.03-.72-3.73-2.33-4.57-3.5C7.33,88.8-4.25,42.41,1.52,19.5c.64-2.55,2.87-5.16,5.28-6.2,2.56-1.1,10.34-4.45,47.72-5.53,17.99-.52,34.4-.26,34.56-.26,3.74.06,6.72,3.14,6.66,6.88-.06,3.74-3.15,6.73-6.88,6.66-23.08-.38-62.12.42-74.69,3.99-3.31,19.05,6.24,57.48,16.23,72.63,3.97.54,14.47.12,24.27-1.03.26-.03.53-.05.79-.05,2.29,0,4.49.98,6.03,2.68,1.51,1.67,2.26,3.9,2.06,6.14l-1.12,14.72,20.91-25.84c.08-.1.16-.19.25-.29,2.13-2.35,5.18-3.7,8.36-3.7.22,0,.45.01.67.03,9.62.96,21.41,1.41,26.14.75,1.65-4.22,4.03-13.52,5.6-33.52,1.07-13.73,1.21-25.8,1.21-25.92.04-3.71,3.06-6.7,6.77-6.7.02,0,.05,0,.07,0,3.74.04,6.74,3.1,6.7,6.84-.05,5.15-.76,50.8-9.02,67.13-.97,1.91-2.96,3.71-4.96,4.48-6.7,2.58-24.66,1.27-32.19.58l-33.63,41.56c-1.31,1.62-3.26,2.51-5.26,2.51Z"/>
    <path class="cls-1" d="M61.7,87.71c-.24,0-.47,0-.71-.03-2.94-.23-5.58-1.88-7.08-4.43l-19.21-32.74c-2.52-4.3-1.08-9.83,3.22-12.35,4.3-2.52,9.83-1.08,12.35,3.22l12.73,21.68C77.17,46.29,106,13.16,121.72,1.73c4.03-2.93,9.68-2.04,12.61,1.99,2.93,4.03,2.04,9.67-1.99,12.61-19.08,13.87-63.22,67.54-63.66,68.08-1.72,2.1-4.29,3.3-6.97,3.3Z"/>
  </g>
  <g>
    <path class="cls-1" d="M445.98,99.69h-38.65c.6-.75,1.51-1.66,2.42-2.57,4.68-5.13,13.74-7.85,23.1-11.47,13.74-5.28,26.57-11.32,26.57-30.05,0-19.78-14.04-31.4-39.71-31.4-12.53,0-22.35,2.57-28.84,7.25-6.64,4.53-10.12,10.72-10.12,18.12,0,14.65,19.48,13.74,19.48,13.44,1.51-7.55,7.4-15.1,17.51-15.1,8.3,0,12.38,3.02,12.38,9.21s-8.61,8.61-19.93,13.89c-12.98,6.04-29.89,15.55-29.89,32.61v5.74c0,12.53,4.08,14.49,18.27,14.49h47.41c10.42,0,14.19-4.23,14.19-11.78v-1.21c0-7.1-3.77-11.17-14.19-11.17Z"/>
    <path class="cls-1" d="M200.91,44.26h-16.79c-6.52,0-10.17,3.95-10.17,11.06v44.14c0,6.02,3.06,9.18,8.39,9.18h2.86c5.73,0,8.69-3.36,8.69-9.18v-9.18h7.6c17.97,0,27.55-7.6,27.55-22.81s-9.97-23.2-28.14-23.2ZM200.72,75.76h-7.11v-16.59h6.71c6.22,0,9.48,2.96,9.48,8.39s-3.16,8.2-9.08,8.2Z"/>
    <path class="cls-1" d="M242.29,38.63c-3.85,0-7.21,1.48-7.21,2.17v58.65c0,7.01,3.55,9.18,8.59,9.18h1.98c4.84,0,8.39-2.37,8.39-9.18v-46.41c0-11.55-6.22-14.42-11.75-14.42Z"/>
    <path class="cls-1" d="M285.04,58.18c-10.66,0-17.48,1.98-20.83,5.83-1.78,1.88-2.57,4.15-2.57,6.71,0,8.49,12.44,7.01,12.54,6.71,1.18-2.96,3.75-5.83,9.78-5.83,4.34,0,6.91,1.88,7.41,5.83.1.49.2,1.09.2,1.68h-2.07c-19.06.1-29.72,5.43-29.72,16,0,8.49,6.32,14.02,16.19,14.02,7.21,0,13.33-3.06,16.49-8.29.2,1.18.69,2.27,1.18,3.26,1.88,3.36,5.13,4.94,9.28,4.94,3.65,0,7.41-1.09,7.41-2.17v-27.45c0-14.02-7.7-21.23-25.28-21.23ZM291.56,90.37c-.2,4.54-3.65,7.5-8.79,7.5-3.36,0-5.63-1.78-5.63-4.74,0-4.15,4.34-5.83,11.75-5.92l2.67-.1v3.26Z"/>
    <path class="cls-1" d="M352.38,58.18c-7.7,0-12.64,3.85-16.09,9.08-1.48-6.12-5.83-8.59-10.76-8.59-3.95,0-7.31,1.48-7.31,2.17v38.61c0,7.01,3.46,9.18,8.59,9.18h1.97c4.84,0,8.39-2.27,8.39-9.18v-22.02c1.38-2.27,4.05-3.85,7.31-3.85,3.95,0,6.22,2.76,6.22,7.11v18.76c0,7.01,3.55,9.18,8.59,9.18h1.97c4.94,0,8.39-2.37,8.39-9.18v-22.02c0-10.07-4.64-19.25-17.28-19.25Z"/>
    <path class="cls-1" d="M524.99,54.33v-.4c0-5.43-3.06-8.2-9.18-8.2h-40.68c-5.92,0-9.08,2.76-9.08,8.2v.4c0,5.63,3.16,8.59,9.08,8.59h10.56v38.01c0,6.02,2.76,9.18,8.2,9.18h2.86c5.63,0,8.79-3.16,8.79-9.18v-38.01h10.27c6.12,0,9.18-2.96,9.18-8.59Z"/>
    <path class="cls-1" d="M546.03,59.67c-10.66,0-17.48,1.98-20.83,5.83-1.78,1.88-2.57,4.15-2.57,6.71,0,8.49,12.44,7.01,12.54,6.71,1.18-2.96,3.75-5.83,9.77-5.83,4.34,0,6.91,1.88,7.41,5.83.1.49.2,1.09.2,1.68h-2.07c-19.06.1-29.72,5.43-29.72,16,0,8.49,6.32,14.02,16.19,14.02,7.21,0,13.33-3.06,16.49-8.29.2,1.18.69,2.27,1.18,3.26,1.88,3.36,5.13,4.94,9.28,4.94,3.65,0,7.41-1.09,7.41-2.17v-27.45c0-14.02-7.7-21.23-25.28-21.23ZM552.54,91.85c-.2,4.54-3.65,7.5-8.79,7.5-3.36,0-5.63-1.78-5.63-4.74,0-4.15,4.34-5.83,11.75-5.92l2.67-.1v3.26Z"/>
    <path class="cls-1" d="M603.3,79.22c-5.04-1.18-8.39-1.58-8.39-3.85,0-2.07,2.07-3.26,5.73-3.26,5.04,0,10.76,2.76,14.32,6.22.3.3,5.04-2.96,5.04-7.41,0-1.68-.39-3.16-1.28-4.54-2.47-4.25-8.98-6.61-19.45-6.61-13.72,0-21.62,6.32-21.62,16.19,0,11.95,11.16,14.02,17.28,15.3,4.74,1.09,7.8,1.68,7.8,4.05,0,1.98-2.07,3.06-5.92,3.06-6.52,0-12.44-2.67-15.8-5.73-.39-.39-4.54,2.67-4.54,6.91,0,3.36,1.48,6.02,4.84,7.9,3.55,2.07,9.18,3.26,16.98,3.26,15.01,0,22.91-6.02,22.91-16.29,0-11.65-11.65-13.82-17.87-15.21Z"/>
    <path class="cls-1" d="M662.44,84.45l13.33-18.66c.49-1.09-4.54-5.83-10.27-5.83-3.26,0-7.31,1.48-9.87,5.73l-9.78,14.22v-25.37c0-11.55-6.22-14.42-11.65-14.42-3.85,0-7.31,1.48-7.31,2.17v58.65c0,7.01,3.55,9.18,8.69,9.18h1.98c4.84,0,8.29-2.37,8.29-9.18v-10.96l10.47,14.61c2.67,4.34,6.71,5.83,10.27,5.83,5.63,0,10.96-4.74,10.47-5.73l-14.61-20.24Z"/>
    <path class="cls-1" d="M705.6,79.22c-5.04-1.18-8.39-1.58-8.39-3.85,0-2.07,2.07-3.26,5.73-3.26,5.04,0,10.76,2.76,14.32,6.22.3.3,5.04-2.96,5.04-7.41,0-1.68-.39-3.16-1.28-4.54-2.47-4.25-8.98-6.61-19.45-6.61-13.72,0-21.62,6.32-21.62,16.19,0,11.95,11.16,14.02,17.28,15.3,4.74,1.09,7.8,1.68,7.8,4.05,0,1.98-2.07,3.06-5.92,3.06-6.52,0-12.44-2.67-15.8-5.73-.39-.39-4.54,2.67-4.54,6.91,0,3.36,1.48,6.02,4.84,7.9,3.55,2.07,9.18,3.26,16.98,3.26,15.01,0,22.91-6.02,22.91-16.29,0-11.65-11.65-13.82-17.87-15.21Z"/>
  </g>
</svg>